<?xml version="1.0" encoding="utf-8"?>
<!-- Generator: Adobe Illustrator 16.0.0, SVG Export Plug-In . SVG Version: 6.00 Build 0)  -->
<!DOCTYPE svg PUBLIC "-//W3C//DTD SVG 1.1//EN" "http://www.w3.org/Graphics/SVG/1.1/DTD/svg11.dtd">
<svg version="1.1"
	 id="Layer_1" xmlns:dc="http://purl.org/dc/elements/1.1/" xmlns:cc="http://creativecommons.org/ns#" xmlns:rdf="http://www.w3.org/1999/02/22-rdf-syntax-ns#" xmlns:svg="http://www.w3.org/2000/svg" xmlns:sodipodi="http://sodipodi.sourceforge.net/DTD/sodipodi-0.dtd" xmlns:inkscape="http://www.inkscape.org/namespaces/inkscape" sodipodi:docname="logo.svg" inkscape:version="0.91 r13725"
	 xmlns="http://www.w3.org/2000/svg" xmlns:xlink="http://www.w3.org/1999/xlink" x="0px" y="0px" width="400px" height="400px"
	 viewBox="0 0 400 400" enable-background="new 0 0 400 400" xml:space="preserve">
<sodipodi:namedview  inkscape:cy="53.908167" inkscape:cx="78.539864" inkscape:zoom="6.2090548" showgrid="false" guidetolerance="10" gridtolerance="10" objecttolerance="10" borderopacity="1" pagecolor="#323232" bordercolor="#666666" id="namedview4149" inkscape:current-layer="Layer_1" inkscape:window-maximized="1" inkscape:window-y="-8" inkscape:window-x="-8" inkscape:window-height="1017" inkscape:window-width="1920" inkscape:pageshadow="2" inkscape:pageopacity="0">
	</sodipodi:namedview>
<path id="path4139" fill="none" stroke="#EB1F3A" stroke-width="1.69" stroke-miterlimit="10" d="M3.621,175.498
	c0,0,6.276,14.001,33.313,11.104c20.277-2.172,45.383-53.108,53.591-62.764c8.207-9.656,22.45-8.932,28.485-4.587
	s7.966,20.519,7.966,20.519"/>
<path id="path4141" fill="#EC1C3A" d="M123.355,140.253c-38.383,0-72.661,36.452-72.661,75.317s33.313,72.662,71.695,72.662
	c48.28,0,77.731-31.865,77.731-74.352C200.121,176.705,172.843,140.253,123.355,140.253z M130.115,195.292
	c1.689-1.207,3.138-2.655,4.345-4.345c1.69-3.621,1.207-12.07,0-15.933c-0.482-1.931-4.345-4.828-4.345-4.828v-12.794
	c0,0,9.173,1.448,15.208,6.276c4.828,3.862,9.656,11.104,12.07,14.725c7.725,11.587,11.104,28.485,11.104,28.485h-38.382V195.292z
	 M95.112,178.395c2.414-3.621,7-10.863,11.828-14.725c4.346-3.138,9.415-5.311,14.726-6.276v13.036c0,0-3.862,2.896-4.346,4.828
	c-1.207,3.862-1.689,12.312,0,15.933c1.207,1.69,2.656,2.896,4.346,4.345v11.587H84.249
	C84.249,206.88,87.629,189.982,95.112,178.395z M168.497,238.262c-2.172,7.001-5.311,14.484-16.173,23.416
	c-5.312,4.346-18.347,9.656-25.348,9.656l0,0c-7.242-0.242-20.519-5.311-25.83-9.656c-11.346-8.932-14.725-16.415-16.656-23.416
	c-1.931-6.035-2.173-23.898-2.173-23.898h88.353C170.67,214.363,170.187,231.985,168.497,238.262L168.497,238.262z"/>
<g id="text4143" transform="matrix(1 0 0 1 86.8349 65.3623)">
	<path id="path4159" d="M156.021,101.159v13.949h7.274v14.015h-7.274v47.385c0,5.829,0.289,9.077,0.867,9.744
		c0.623,0.667,3.137,1.001,7.542,1.001v14.282h-10.879c-6.14,0-10.522-0.245-13.147-0.733c-2.625-0.535-4.938-1.714-6.941-3.538
		c-2.002-1.868-3.248-3.981-3.737-6.34c-0.489-2.403-0.734-8.009-0.734-16.818v-44.983h-5.806v-14.015h5.806v-13.949H156.021z"/>
	<path id="path4161" d="M230.303,158.821h-34.905v19.154c0,4.005,0.289,6.586,0.867,7.742c0.579,1.156,1.691,1.735,3.338,1.735
		c2.046,0,3.403-0.757,4.07-2.269c0.712-1.558,1.068-4.539,1.068-8.943v-11.68h25.562v6.541c0,5.473-0.356,9.677-1.068,12.613
		c-0.667,2.937-2.269,6.073-4.805,9.41s-5.762,5.852-9.678,7.541c-3.87,1.646-8.743,2.471-14.616,2.471
		c-5.695,0-10.723-0.824-15.083-2.471c-4.36-1.646-7.764-3.893-10.211-6.74c-2.402-2.893-4.071-6.051-5.006-9.477
		c-0.934-3.471-1.401-8.498-1.401-15.084v-25.828c0-7.741,1.046-13.837,3.137-18.286c2.092-4.494,5.518-7.92,10.278-10.278
		c4.761-2.403,10.233-3.604,16.418-3.604c7.563,0,13.793,1.446,18.688,4.338c4.938,2.848,8.387,6.652,10.344,11.413
		c2.003,4.716,3.004,11.369,3.004,19.955V158.821z M203.272,144.406v-6.474c0-4.583-0.244-7.542-0.733-8.876
		c-0.49-1.335-1.491-2.002-3.004-2.002c-1.868,0-3.025,0.579-3.471,1.735c-0.444,1.112-0.667,4.16-0.667,9.144v6.474H203.272z"/>
</g>
<path id="path4156" fill="#EC1C3A" d="M393.687,158.846l-16.084,48.787l17.619,59.265H366.19l-11.346-46.317v46.317h-28.097V158.846
	h28.097v41.979l12.48-41.979H393.687z"/>
<path id="path4147" inkscape:connector-curvature="0" fill="#EB1F3A" stroke="#EB1F3A" stroke-width="0.3932" stroke-miterlimit="10" d="
	M2.604,176.923l2.801-1.272c0,0-2.855-6.354-4.27-5.573C-0.545,170.841,2.604,176.923,2.604,176.923z"/>
</svg>
